2.5Hzlow3min_grf.mot
version=1
nRows=17
nColumns 19
inDegrees=yes
endheader
time	1_ground_force_vx	1_ground_force_vy	1_ground_force_vz	1_ground_force_px	1_ground_force_py	1_ground_force_pz	1_ground_torque_x	1_ground_torque_y	1_ground_torque_z	2_ground_force_vx	2_ground_force_vy	2_ground_force_vz	2_ground_force_px	2_ground_force_py	2_ground_force_pz	2_ground_torque_x	2_ground_torque_y	2_ground_torque_z
            1.253500	           -3.869823	          640.450615	          -31.683129	           -0.162089	            0.006333	           -0.427860	           -0.004108	            0.679951	           -0.033637	           21.736756	          720.299859	           51.975367	           -0.205132	            0.005664	           -0.675435	            0.074349	            2.463744	            0.177779
            1.254000	           -4.192121	          647.481081	          -31.698039	           -0.162239	            0.006333	           -0.427903	           -0.005072	            0.783424	           -0.038353	           21.665060	          727.293933	           52.938917	           -0.205057	            0.005664	           -0.675539	            0.073149	            2.455608	            0.178741
            1.254500	           -5.064485	          653.610400	          -31.761308	           -0.162273	            0.006335	           -0.428446	           -0.006275	            0.809861	           -0.039354	           21.642772	          733.552450	           53.665178	           -0.205163	            0.005665	           -0.675737	            0.072718	            2.464693	            0.180312
            1.255000	           -5.341820	          661.723708	          -32.046838	           -0.162359	            0.006333	           -0.427933	           -0.007358	            0.911444	           -0.044141	           21.714306	          739.810301	           54.672968	           -0.205212	            0.005665	           -0.675807	            0.071001	            2.419011	            0.178768
            1.255500	           -5.756404	          667.673877	          -32.387153	           -0.162258	            0.006334	           -0.428303	           -0.008086	            0.937851	           -0.045493	           21.832028	          746.252524	           55.681396	           -0.205319	            0.005664	           -0.675837	            0.069927	            2.390198	            0.178344
            1.256000	           -6.079711	          675.246804	          -32.766592	           -0.162405	            0.006333	           -0.428001	           -0.008742	            0.970899	           -0.047113	           21.900863	          753.247272	           56.597958	           -0.205353	            0.005665	           -0.676104	            0.071824	            2.470274	            0.185613
            1.256500	           -6.311690	          682.279646	          -33.332008	           -0.162631	            0.006334	           -0.428101	           -0.008635	            0.933470	           -0.045604	           21.413563	          758.582117	           57.696559	           -0.205387	            0.005664	           -0.675921	            0.074325	            2.632984	            0.200261
            1.257000	           -7.046557	          688.589166	          -33.394846	           -0.162595	            0.006333	           -0.427995	           -0.008750	            0.855027	           -0.041467	           20.782347	          764.837431	           58.704648	           -0.205495	            0.005665	           -0.676083	            0.074042	            2.724906	            0.209149
            1.257500	           -7.277703	          694.179022	          -33.737162	           -0.162686	            0.006334	           -0.428251	           -0.009843	            0.938865	           -0.045629	           20.382848	          771.829149	           59.996834	           -0.205400	            0.005666	           -0.676297	            0.072193	            2.733720	            0.212501
            1.258000	           -7.921066	          702.110784	          -33.747411	           -0.162770	            0.006332	           -0.427851	           -0.011250	            0.997181	           -0.047930	           19.752924	          777.716516	           60.909753	           -0.205389	            0.005666	           -0.676405	            0.069912	            2.752582	            0.215579
            1.258500	           -8.060280	          706.979277	          -34.047195	           -0.162599	            0.006334	           -0.428223	           -0.011682	            1.024651	           -0.049346	           19.307758	          784.340955	           61.872149	           -0.205306	            0.005667	           -0.676468	            0.067840	            2.755854	            0.217393
            1.259000	           -8.245472	          713.830259	          -34.246643	           -0.162758	            0.006333	           -0.427998	           -0.012653	            1.095374	           -0.052552	           18.866563	          789.860718	           62.783674	           -0.205431	            0.005667	           -0.676569	            0.067404	            2.821907	            0.224305
            1.259500	           -8.063818	          718.879109	          -34.546451	           -0.162593	            0.006335	           -0.428344	           -0.011976	            1.067653	           -0.051307	           18.706628	          795.380157	           64.070504	           -0.205291	            0.005667	           -0.676527	            0.066756	            2.838366	            0.228640
            1.260000	           -8.479918	          726.273688	          -35.384994	           -0.162903	            0.006333	           -0.427924	           -0.011522	            0.986847	           -0.048080	           18.165689	          802.557410	           64.847198	           -0.205448	            0.005668	           -0.676857	            0.066259	            2.927334	            0.236531
            1.260500	           -8.481312	          732.042780	          -35.497830	           -0.162919	            0.006333	           -0.428084	           -0.011634	            1.004164	           -0.048693	           17.444303	          807.889948	           66.321323	           -0.205398	            0.005668	           -0.676850	            0.063636	            2.947167	            0.241939
            1.261000	           -8.621374	          737.813810	          -36.068877	           -0.163148	            0.006333	           -0.428064	           -0.011611	            0.993685	           -0.048577	           16.392084	          813.959827	           67.282006	           -0.205427	            0.005668	           -0.676869	            0.061751	            3.066299	            0.253461
            1.261500	           -8.897581	          742.861589	          -36.138264	           -0.162956	            0.006333	           -0.428059	           -0.012273	            1.024650	           -0.049847	           15.294223	          819.662138	           67.959827	           -0.205409	            0.005669	           -0.677095	            0.057443	            3.078564	            0.255250
